# xmcd
#
# Track frame offsets: 
#        150
#        34615
#        48223
#        62740
#        73763
#        87073
#        101608
#        104953
#        119785
#        135998
#        165048
#        180748
#        211113
#        250743
#
# Disc length: 3741 seconds
#
# Revision: 1
# Processed by: cddbd v1.5.2PL0 Copyright (c) Steve Scherf et al.
# Submitted via: ExactAudioCopy v1.5
#
DISCID=bb0e9b0e
DTITLE=Benny Goodman - 14 Golden Big Band Hits
DYEAR=1900
DGENRE=Jazz
TTITLE0=One O'Clock Jump
TTITLE1=Jersey Bounce
TTITLE2=Frankie And Johnny Were Lovers
TTITLE3=Stomping At The Savoy
TTITLE4=Down South Camp Meeting
TTITLE5=Jumping At The Woodside
TTITLE6=Let's Dance
TTITLE7=King Porter Stomp
TTITLE8=I Found A New Baby
TTITLE9=Roll 'Em
TTITLE10=Stardust
TTITLE11=That's A Plenty
TTITLE12=How High The Moon
TTITLE13=Seven Come Eleven
EXTD=
EXTT0=
EXTT1=
EXTT2=
EXTT3=
EXTT4=
EXTT5=
EXTT6=
EXTT7=
EXTT8=
EXTT9=
EXTT10=
EXTT11=
EXTT12=
EXTT13=
PLAYORDER=
